<svg width="390" height="844" viewBox="0 0 390 844" fill="none" xmlns="http://www.w3.org/2000/svg">
<g clip-path="url(#clip0_1001_494)">
<rect width="390" height="844" fill="#006AAD"/>
<g clip-path="url(#clip1_1001_494)">
<path d="M-9.51394 314.721C-26.9263 304.668 -32.9858 282.583 -23.0523 265.378C-13.1188 248.173 9.03713 242.378 26.4495 252.431C43.8618 262.484 49.9212 284.569 39.9877 301.774C30.0542 318.98 7.8984 324.774 -9.51394 314.721Z" fill="#223360"/>
<path d="M6.02907 282.168C8.24 279.181 19.0709 265.316 38.5017 262.662C50.9783 260.948 60.9072 264.698 65.3022 266.665C62.8767 269.919 54.3444 280.487 38.6281 284.655C22.7328 288.869 9.77292 283.789 6.02907 282.168Z" fill="#FDC80A"/>
<path d="M6.02905 282.168C4.54743 285.577 -2.04428 301.889 5.37274 320.043C10.1262 331.706 18.3388 338.429 22.2398 341.252C23.8448 337.524 28.7306 324.851 24.482 309.157C20.1844 293.283 9.30484 284.6 6.02905 282.168Z" fill="#FDC80A"/>
<path d="M6.02905 282.168C3.81811 285.155 -7.01277 299.02 -26.4436 301.674C-38.9202 303.389 -48.8491 299.638 -53.2441 297.671C-50.8186 294.417 -42.2863 283.85 -26.57 279.682C-10.6747 275.467 2.28519 280.547 6.02905 282.168Z" fill="#FDC80A"/>
<path d="M6.02906 282.168C7.51068 278.76 14.1024 262.448 6.68542 244.293C1.93199 232.631 -6.28071 225.907 -10.1816 223.085C-11.7867 226.812 -16.6725 239.485 -12.4239 255.18C-8.1263 271.053 2.75328 279.736 6.02906 282.168Z" fill="#FDC80A"/>
</g>
<g clip-path="url(#clip2_1001_494)">
<path d="M308.359 0.00012207H288.086V20.2028H308.359V0.00012207Z" fill="#FDC80A"/>
<path d="M328.628 20.2028H308.355V40.4054H328.628V20.2028Z" fill="#EE7B1D"/>
<mask id="mask0_1001_494" style="mask-type:luminance" maskUnits="userSpaceOnUse" x="245" y="-5" width="146" height="88">
<path d="M248.272 -4.1013L245.815 78.3716L387.566 82.5642L390.022 0.0913588L248.272 -4.1013Z" fill="white"/>
</mask>
<g mask="url(#mask0_1001_494)">
<path d="M327.904 30.3058C327.391 30.2666 323.828 30.0547 321.035 32.8388C318.241 35.6229 318.454 39.1731 318.493 39.685C318.532 39.1731 318.745 35.6229 315.951 32.8388C313.158 30.0547 309.595 30.2666 309.082 30.3058C309.595 30.3449 313.158 30.5568 315.951 27.7727C318.745 24.9886 318.532 21.4383 318.493 20.9265C318.454 21.4383 318.241 24.9886 321.035 27.7727C323.828 30.5568 327.391 30.3449 327.904 30.3058Z" fill="#23335F"/>
<path d="M307.632 10.1324C307.119 10.0933 303.556 9.88138 300.763 12.6655C297.969 15.4496 298.182 18.9998 298.221 19.5116C298.26 18.9998 298.473 15.4496 295.679 12.6655C292.886 9.88138 289.323 10.0933 288.81 10.1324C289.323 10.1715 292.886 10.3834 295.679 7.59933C298.473 4.81523 298.26 1.26501 298.221 0.753174C298.182 1.26501 297.969 4.81523 300.763 7.59933C303.556 10.3834 307.119 10.1715 307.632 10.1324Z" fill="white"/>
<path d="M308.356 20.2028H288.083V40.4054H308.356V20.2028Z" fill="#006CAE"/>
<path d="M328.628 40.4055H308.355V60.6082H328.628V40.4055Z" fill="#FDC80A"/>
<path d="M328.628 0.0327148H308.355V20.2354H328.628V0.0327148Z" fill="#006CAE"/>
<path d="M348.9 60.6082H328.627V80.8108H348.9V60.6082Z" fill="#EE7B1D"/>
<path d="M348.177 70.7078C347.663 70.6687 344.101 70.4568 341.307 73.2409C338.514 76.025 338.726 79.5752 338.765 80.0871C338.805 79.5752 339.017 76.025 336.224 73.2409C333.43 70.4568 329.868 70.6687 329.354 70.7078C329.868 70.747 333.43 70.9589 336.224 68.1748C339.017 65.3907 338.805 61.8404 338.765 61.3286C338.726 61.8404 338.514 65.3907 341.307 68.1748C344.101 70.9589 347.663 70.747 348.177 70.7078Z" fill="#FDC80A"/>
<path d="M288.084 0.00012207H267.812V20.2028H288.084V0.00012207Z" fill="#EE7B1D"/>
<path d="M287.429 10.1324C286.916 10.0933 283.353 9.88138 280.56 12.6655C277.766 15.4496 277.979 18.9998 278.018 19.5116C278.057 18.9998 278.27 15.4496 275.476 12.6655C272.682 9.88138 269.12 10.0933 268.606 10.1324C269.12 10.1715 272.682 10.3834 275.476 7.59933C278.27 4.81523 278.057 1.26501 278.018 0.753174C277.979 1.26501 277.766 4.81523 280.56 7.59933C283.353 10.3834 286.916 10.1715 287.429 10.1324Z" fill="#FDC80A"/>
<path d="M267.815 20.2028H247.542V40.4054H267.815V20.2028Z" fill="#006CAE"/>
<path d="M267.105 30.335C266.591 30.2959 263.029 30.084 260.235 32.8681C257.441 35.6522 257.654 39.2024 257.693 39.7143C257.732 39.2024 257.945 35.6522 255.151 32.8681C252.358 30.084 248.795 30.2959 248.282 30.335C248.795 30.3742 252.358 30.5861 255.151 27.802C257.945 25.0179 257.732 21.4676 257.693 20.9558C257.654 21.4676 257.441 25.0179 260.235 27.802C263.029 30.5861 266.591 30.3742 267.105 30.335Z" fill="#32A7C6"/>
<path d="M288.087 40.4315H267.814V60.6342H288.087V40.4315Z" fill="#FDC80A"/>
<path d="M287.377 50.5638C286.863 50.5247 283.301 50.3128 280.507 53.0969C277.713 55.881 277.926 59.4312 277.965 59.943C278.004 59.4312 278.217 55.881 275.423 53.0969C272.63 50.3128 269.067 50.5247 268.554 50.5638C269.067 50.6029 272.63 50.8148 275.423 48.0307C278.217 45.2466 278.004 41.6964 277.965 41.1846C277.926 41.6964 277.713 45.2466 280.507 48.0307C283.301 50.8148 286.863 50.6029 287.377 50.5638Z" fill="#EE7B1D"/>
<path d="M348.906 20.2354H328.637V40.4348H348.906V20.2354Z" fill="#006CAE"/>
<path d="M369.172 20.2354H348.903V40.4348H369.172V20.2354Z" fill="#FDC80A"/>
<path d="M338.769 36.9889C335.079 36.9889 332.089 34.0092 332.089 30.3319C332.089 26.6545 335.079 23.6748 338.769 23.6748C342.459 23.6748 345.449 26.6545 345.449 30.3319C345.449 34.0092 342.459 36.9889 338.769 36.9889Z" fill="#23335F"/>
<path d="M345.406 30.3319C345.046 30.3058 342.531 30.1558 340.561 32.1184C338.592 34.0809 338.743 36.5879 338.769 36.9465C338.795 36.5879 338.945 34.0809 336.976 32.1184C335.007 30.1558 332.491 30.3058 332.131 30.3319C332.491 30.3579 335.007 30.5079 336.976 28.5453C338.945 26.5828 338.795 24.0758 338.769 23.7172C338.743 24.0758 338.592 26.5828 340.561 28.5453C342.531 30.5079 345.046 30.3579 345.406 30.3319Z" fill="white"/>
<path d="M369.172 40.4315H348.903V60.6309H369.172V40.4315Z" fill="#EE7B1D"/>
<path d="M359.502 57.1883C355.812 57.1883 352.822 54.2086 352.822 50.5312C352.822 46.8538 355.812 43.8741 359.502 43.8741C363.192 43.8741 366.182 46.8538 366.182 50.5312C366.182 54.2086 363.192 57.1883 359.502 57.1883Z" fill="#026DAF"/>
<path d="M366.139 50.5313C365.779 50.5052 363.264 50.3553 361.294 52.3178C359.325 54.2804 359.476 56.7874 359.502 57.146C359.528 56.7874 359.678 54.2804 357.709 52.3178C355.74 50.3553 353.224 50.5052 352.864 50.5313C353.224 50.5574 355.74 50.7074 357.709 48.7448C359.678 46.7822 359.528 44.2752 359.502 43.9166C359.476 44.2752 359.325 46.7822 361.294 48.7448C363.264 50.7074 365.779 50.5574 366.139 50.5313Z" fill="#FDC80A"/>
<path d="M389.418 0.0588379H348.929V20.2322H389.418V0.0588379Z" fill="#23335F"/>
<path d="M370.232 14.1847C367.732 14.1847 365.708 12.1667 365.708 9.67605C365.708 7.18535 367.732 5.16736 370.232 5.16736C372.731 5.16736 374.756 7.18535 374.756 9.67605C374.756 12.1667 372.731 14.1847 370.232 14.1847Z" fill="#006CAE"/>
<path d="M369.882 9.67602C369.934 9.21309 370.238 7.02884 372.165 5.52268C373.402 4.55444 374.704 4.33929 375.299 4.27734C375.24 4.78266 374.978 6.46485 373.546 7.90254C372.096 9.35654 370.386 9.61734 369.882 9.67602Z" fill="#FDC80A"/>
<path d="M369.882 9.67603C369.934 10.139 370.238 12.3232 372.165 13.8294C373.402 14.7976 374.704 15.0128 375.299 15.0747C375.24 14.5694 374.978 12.8872 373.546 11.4495C372.096 9.99551 370.386 9.73471 369.882 9.67603Z" fill="#FDC80A"/>
<path d="M369.882 9.67603C369.829 10.139 369.525 12.3232 367.598 13.8294C366.362 14.7976 365.06 15.0128 364.464 15.0747C364.523 14.5694 364.785 12.8872 366.218 11.4495C367.667 9.99551 369.378 9.73471 369.882 9.67603Z" fill="#FDC80A"/>
<path d="M369.882 9.67602C369.829 9.21309 369.525 7.02884 367.598 5.52268C366.362 4.55444 365.06 4.33929 364.464 4.27734C364.523 4.78266 364.785 6.46485 366.218 7.90254C367.667 9.35654 369.378 9.61734 369.882 9.67602Z" fill="#FDC80A"/>
</g>
</g>
<g clip-path="url(#clip3_1001_494)">
<path d="M465.048 469.701C461.083 469.374 433.573 467.567 411.86 488.975C390.147 510.383 391.622 537.86 391.901 541.822C392.228 537.864 394.038 510.407 372.588 488.736C351.138 467.064 323.608 468.536 319.639 468.814C323.605 469.141 351.115 470.948 372.828 449.54C394.54 428.132 393.065 400.655 392.786 396.693C392.459 400.652 390.649 428.108 412.099 449.78C433.549 471.451 461.079 469.98 465.048 469.701Z" fill="#EE7B1D"/>
</g>
<g clip-path="url(#clip4_1001_494)">
<path d="M97.9174 780.53C92.651 780.096 56.1181 777.696 27.2838 806.125C-1.55052 834.555 0.408324 871.044 0.778952 876.305C1.21375 871.049 3.61765 834.586 -24.8676 805.807C-53.3528 777.028 -89.9124 778.982 -95.1837 779.352C-89.9173 779.786 -53.3843 782.186 -24.55 753.757C4.28429 725.327 2.3255 688.838 1.95487 683.577C1.52007 688.833 -0.883885 725.295 27.6014 754.075C56.0866 782.854 92.6461 780.9 97.9174 780.53Z" fill="#223360"/>
</g>
</g>
<defs>
<clipPath id="clip0_1001_494">
<rect width="390" height="844" fill="white"/>
</clipPath>
<clipPath id="clip1_1001_494">
<rect width="97.8442" height="141.981" fill="white" transform="translate(-1.89233 199.852) rotate(30)"/>
</clipPath>
<clipPath id="clip2_1001_494">
<rect width="123" height="89" fill="white" transform="translate(267 -4)"/>
</clipPath>
<clipPath id="clip3_1001_494">
<rect width="155" height="147" fill="white" transform="translate(313.897 394) rotate(0.349582)"/>
</clipPath>
<clipPath id="clip4_1001_494">
<rect width="205.837" height="195.213" fill="white" transform="translate(-102.809 680) rotate(0.349582)"/>
</clipPath>
</defs>
</svg>
