<svg width="390" height="844" viewBox="0 0 390 844" fill="none" xmlns="http://www.w3.org/2000/svg">
<g clip-path="url(#clip0_1004_701)">
<rect width="390" height="844" fill="#006AAD"/>
<g clip-path="url(#clip1_1004_701)">
<path d="M-16.9904 320.449C-38.3449 308.12 -45.7763 281.035 -33.5939 259.934C-21.4114 238.834 5.76069 231.727 27.1152 244.056C48.4698 256.385 55.901 283.47 43.7186 304.571C31.5361 325.671 4.36416 332.778 -16.9904 320.449Z" fill="#223360"/>
<path d="M2.07207 280.526C4.78356 276.862 18.0666 259.858 41.8966 256.604C57.198 254.501 69.3748 259.101 74.7648 261.513C71.7901 265.503 61.3262 278.464 42.0516 283.575C22.5576 288.744 6.66354 282.514 2.07207 280.526Z" fill="#FDC80A"/>
<path d="M2.07178 280.526C0.254714 284.706 -7.82937 304.711 1.26687 326.976C7.09649 341.279 17.1685 349.524 21.9526 352.986C23.9211 348.415 29.913 332.872 24.7025 313.624C19.4319 294.157 6.08921 283.508 2.07178 280.526Z" fill="#FDC80A"/>
<path d="M2.07196 280.526C-0.63953 284.189 -13.9226 301.193 -37.7526 304.448C-53.0539 306.551 -65.2308 301.951 -70.6208 299.538C-67.6461 295.548 -57.1821 282.588 -37.9076 277.476C-18.4136 272.307 -2.51951 278.538 2.07196 280.526Z" fill="#FDC80A"/>
<path d="M2.07177 280.526C3.88883 276.346 11.973 256.34 2.87672 234.076C-2.9529 219.773 -13.025 211.527 -17.8091 208.066C-19.7775 212.637 -25.7694 228.179 -20.5589 247.427C-15.2884 266.894 -1.94566 277.543 2.07177 280.526Z" fill="#FDC80A"/>
</g>
<g clip-path="url(#clip2_1004_701)">
<path d="M390.978 664.206V633.716H360.56V664.206H390.978Z" fill="#FDC80A"/>
<path d="M360.56 694.692V664.201H330.143V694.692H360.56Z" fill="#EE7B1D"/>
<mask id="mask0_1004_701" style="mask-type:luminance" maskUnits="userSpaceOnUse" x="266" y="570" width="132" height="218">
<path d="M397.152 573.831L272.979 570.137L266.667 783.339L390.84 787.034L397.152 573.831Z" fill="white"/>
</mask>
<g mask="url(#mask0_1004_701)">
<path d="M345.348 693.605C345.407 692.832 345.726 687.474 341.534 683.272C337.343 679.07 331.997 679.39 331.227 679.449C331.997 679.508 337.343 679.828 341.534 675.626C345.726 671.424 345.407 666.066 345.348 665.294C345.289 666.066 344.97 671.424 349.162 675.626C353.354 679.828 358.699 679.508 359.47 679.449C358.699 679.39 353.354 679.07 349.162 683.272C344.97 687.474 345.289 692.832 345.348 693.605Z" fill="#23335F"/>
<path d="M375.722 663.114C375.781 662.342 376.1 656.983 371.908 652.782C367.716 648.58 362.371 648.9 361.6 648.959C362.371 649.018 367.716 649.337 371.908 645.136C376.1 640.934 375.781 635.576 375.722 634.803C375.663 635.576 375.344 640.934 379.536 645.136C383.727 649.337 389.073 649.018 389.843 648.959C389.073 648.9 383.727 648.58 379.536 652.782C375.344 656.983 375.663 662.342 375.722 663.114Z" fill="white"/>
<path d="M360.56 664.201V633.711H330.142V664.201H360.56Z" fill="#006CAE"/>
<path d="M330.142 694.692V664.201H299.725V694.692H330.142Z" fill="#FDC80A"/>
<path d="M390.928 694.692V664.201H360.51V694.692H390.928Z" fill="#006CAE"/>
<path d="M299.725 725.182V694.692H269.307V725.182H299.725Z" fill="#EE7B1D"/>
<path d="M284.518 724.095C284.577 723.323 284.896 717.965 280.704 713.763C276.512 709.561 271.167 709.881 270.397 709.94C271.167 709.999 276.512 710.318 280.704 706.117C284.896 701.915 284.577 696.557 284.518 695.784C284.459 696.557 284.14 701.915 288.332 706.117C292.524 710.318 297.869 709.999 298.64 709.94C297.869 709.881 292.524 709.561 288.332 713.763C284.14 717.965 284.459 723.323 284.518 724.095Z" fill="#FDC80A"/>
<path d="M390.977 633.711V603.22H360.56V633.711H390.977Z" fill="#EE7B1D"/>
<path d="M375.722 632.727C375.781 631.954 376.1 626.596 371.908 622.394C367.716 618.192 362.371 618.512 361.6 618.571C362.371 618.63 367.716 618.95 371.908 614.748C376.1 610.546 375.781 605.188 375.722 604.416C375.663 605.188 375.344 610.546 379.536 614.748C383.727 618.95 389.073 618.63 389.843 618.571C389.073 618.512 383.727 618.192 379.536 622.394C375.344 626.596 375.663 631.954 375.722 632.727Z" fill="#FDC80A"/>
<path d="M360.56 603.225V572.735H330.142V603.225H360.56Z" fill="#006CAE"/>
<path d="M345.304 602.157C345.363 601.385 345.682 596.027 341.49 591.825C337.299 587.623 331.953 587.943 331.183 588.002C331.953 588.061 337.299 588.381 341.49 584.179C345.682 579.977 345.363 574.619 345.304 573.847C345.245 574.619 344.926 579.977 349.118 584.179C353.31 588.381 358.655 588.061 359.426 588.002C358.655 587.943 353.31 587.623 349.118 591.825C344.926 596.027 345.245 601.385 345.304 602.157Z" fill="#32A7C6"/>
<path d="M330.103 633.716V603.225H299.685V633.716H330.103Z" fill="#FDC80A"/>
<path d="M314.847 632.648C314.906 631.876 315.225 626.517 311.033 622.316C306.842 618.114 301.496 618.434 300.726 618.493C301.496 618.552 306.842 618.871 311.033 614.67C315.225 610.468 314.906 605.11 314.847 604.337C314.788 605.11 314.469 610.468 318.661 614.67C322.853 618.871 328.198 618.552 328.969 618.493C328.198 618.434 322.853 618.114 318.661 622.316C314.469 626.517 314.788 631.876 314.847 632.648Z" fill="#EE7B1D"/>
<path d="M360.51 725.192V694.707H330.098V725.192H360.51Z" fill="#006CAE"/>
<path d="M360.51 755.673V725.187H330.098V755.673H360.51Z" fill="#FDC80A"/>
<path d="M335.286 709.945C335.286 704.395 339.772 699.897 345.309 699.897C350.846 699.897 355.332 704.395 355.332 709.945C355.332 715.495 350.846 719.992 345.309 719.992C339.772 719.992 335.286 715.495 335.286 709.945Z" fill="#23335F"/>
<path d="M345.309 719.928C345.348 719.386 345.574 715.603 342.619 712.641C339.664 709.679 335.89 709.905 335.35 709.945C335.89 709.984 339.664 710.21 342.619 707.248C345.574 704.286 345.348 700.503 345.309 699.961C345.27 700.503 345.044 704.286 347.999 707.248C350.954 710.21 354.728 709.984 355.268 709.945C354.728 709.905 350.954 709.679 347.999 712.641C345.044 715.603 345.27 719.386 345.309 719.928Z" fill="white"/>
<path d="M330.103 755.673V725.187H299.69V755.673H330.103Z" fill="#EE7B1D"/>
<path d="M304.873 741.129C304.873 735.579 309.36 731.082 314.896 731.082C320.433 731.082 324.919 735.579 324.919 741.129C324.919 746.679 320.433 751.176 314.896 751.176C309.36 751.176 304.873 746.679 304.873 741.129Z" fill="#026DAF"/>
<path d="M314.896 751.112C314.936 750.571 315.161 746.787 312.206 743.825C309.252 740.863 305.477 741.089 304.937 741.129C305.477 741.168 309.252 741.395 312.206 738.433C315.161 735.471 314.936 731.687 314.896 731.146C314.857 731.687 314.631 735.471 317.586 738.433C320.541 741.395 324.316 741.168 324.855 741.129C324.316 741.089 320.541 740.863 317.586 743.825C314.631 746.787 314.857 750.571 314.896 751.112Z" fill="#FDC80A"/>
<path d="M390.889 786.124V725.227H360.515V786.124H390.889Z" fill="#23335F"/>
<path d="M369.621 757.267C369.621 753.508 372.659 750.463 376.409 750.463C380.159 750.463 383.197 753.508 383.197 757.267C383.197 761.026 380.159 764.072 376.409 764.072C372.659 764.072 369.621 761.026 369.621 757.267Z" fill="#006CAE"/>
<path d="M376.409 756.741C377.106 756.819 380.394 757.277 382.662 760.175C384.12 762.035 384.444 763.993 384.537 764.889C383.776 764.8 381.244 764.406 379.079 762.251C376.89 760.072 376.497 757.498 376.409 756.741Z" fill="#FDC80A"/>
<path d="M376.409 756.741C375.712 756.819 372.423 757.277 370.155 760.175C368.698 762.035 368.374 763.993 368.28 764.889C369.041 764.8 371.574 764.406 373.739 762.251C375.928 760.072 376.32 757.498 376.409 756.741Z" fill="#FDC80A"/>
<path d="M376.409 756.741C375.712 756.662 372.423 756.204 370.155 753.306C368.698 751.447 368.374 749.488 368.28 748.593C369.041 748.681 371.574 749.075 373.739 751.23C375.928 753.41 376.32 755.983 376.409 756.741Z" fill="#FDC80A"/>
<path d="M376.409 756.741C377.106 756.662 380.394 756.204 382.662 753.306C384.12 751.447 384.444 749.488 384.537 748.593C383.776 748.681 381.244 749.075 379.079 751.23C376.89 753.41 376.497 755.983 376.409 756.741Z" fill="#FDC80A"/>
</g>
</g>
<g clip-path="url(#clip3_1004_701)">
<path d="M118.995 733.183H1.82275V850.602H118.995V733.183Z" fill="#006AAD"/>
<path d="M100.75 850.919C89.616 850.814 78.4818 850.708 67.3476 850.602C67.971 847.316 73.3414 815.952 50.6223 791.719C31.4324 771.249 6.17674 770.778 1.79883 770.769C1.80842 761.456 1.81801 752.149 1.8276 742.836C6.94875 742.803 53.6241 743.269 82.4138 782.08C104.001 811.176 101.584 843.024 100.755 850.924L100.75 850.919Z" fill="#EE7A19"/>
<path d="M67.3427 850.602C58.9369 850.602 50.5263 850.602 42.1205 850.602C42.9884 848.248 49.1981 830.44 38.8839 813.079C26.7907 792.729 3.23722 791.917 1.81787 791.893V770.774C13.5083 771.004 22.3408 773.849 27.5962 776.002C33.2544 778.313 37.3638 780.884 39.1955 782.085C47.0451 787.236 51.8402 792.733 53.1492 794.281C61.766 804.458 64.6766 814.953 66.0144 819.989C67.1221 824.159 69.5916 834.981 67.7023 848.32C67.568 849.271 67.4338 850.059 67.3379 850.612L67.3427 850.602Z" fill="white"/>
<path d="M43.9282 850.612C36.4143 850.612 28.8956 850.602 21.3817 850.602C21.7797 849.132 25.4288 834.755 16.0448 823.65C11.01 817.692 4.66606 815.563 1.81299 814.808C1.81299 807.173 1.81779 799.533 1.82258 791.897C6.25324 792.08 13.4794 792.983 21.2618 796.952C29.4375 801.118 34.1127 806.572 35.11 807.764C35.11 807.764 43.3432 817.629 44.8297 831.41C45.4195 836.869 44.9208 842.851 44.8201 843.986C44.5803 846.696 44.2303 848.964 43.9282 850.617V850.612Z" fill="#223360"/>
</g>
<path d="M417.923 53.3805L387.28 -15.3496L318.359 15.2079L349.002 83.938L417.923 53.3805Z" fill="#FDC905"/>
<path d="M347.543 13.9466L347.485 55.467L389.121 55.525L389.179 14.0046L347.543 13.9466Z" fill="#006AAD"/>
<path d="M367.9 44.9694C373.462 44.9694 377.971 40.4727 377.971 34.9258C377.971 29.3789 373.462 24.8822 367.9 24.8822C362.337 24.8822 357.828 29.3789 357.828 34.9258C357.828 40.4727 362.337 44.9694 367.9 44.9694Z" fill="white"/>
</g>
<defs>
<clipPath id="clip0_1004_701">
<rect width="390" height="844" fill="white"/>
</clipPath>
<clipPath id="clip1_1004_701">
<rect width="226.253" height="174.126" fill="white" transform="translate(-51.937 154) rotate(30)"/>
</clipPath>
<clipPath id="clip2_1004_701">
<rect width="185" height="134" fill="white" transform="matrix(0 1 -1 0 397 602)"/>
</clipPath>
<clipPath id="clip3_1004_701">
<rect width="117" height="111" fill="white" transform="translate(2 733)"/>
</clipPath>
</defs>
</svg>
