<svg width="16" height="21" viewBox="0 0 16 21" fill="none" xmlns="http://www.w3.org/2000/svg">
<g clip-path="url(#clip0_3_151)">
<path d="M-0.0708771 16.194L1.03479 18.832H14.0845L12.9328 17.3033L11.4154 16.194H-0.0708771Z" fill="#CACACA"/>
<path d="M9.44682 6.78703L11.3344 8.65224L15.1902 4.84173L13.2998 4.64612L11.4154 4.84173L9.44682 6.78703Z" fill="#CACACA"/>
<path d="M14.0845 2.20331H1.03479L2.19259 3.69941L3.70387 4.84172H15.1902L14.0845 2.20331Z" fill="white"/>
<path d="M1.03479 2.20331L-0.0708771 4.84172L5.67208 10.5178L6.80137 9.75347L7.55965 8.65222L1.03479 2.20331Z" fill="#CACACA"/>
<path d="M7.55965 8.65222L-0.0708771 16.1939L1.8338 16.3895L3.70387 16.1939L9.44682 10.5178L7.55965 8.65222Z" fill="white"/>
<path d="M11.3344 12.383L9.44723 14.2486L14.0845 18.8319L15.1898 16.1939L11.3344 12.383Z" fill="white"/>
</g>
<defs>
<clipPath id="clip0_3_151">
<rect width="16" height="21" fill="white"/>
</clipPath>
</defs>
</svg>
