<svg width="28" height="28" viewBox="0 0 28 28" fill="none" xmlns="http://www.w3.org/2000/svg">
<path d="M18.4285 21.8214C18.6751 22.0679 18.8136 22.4024 18.8136 22.7511C18.8136 23.0998 18.6751 23.4342 18.4285 23.6807C18.1819 23.9273 17.8475 24.0658 17.4988 24.0658C17.1501 24.0658 16.8157 23.9273 16.5691 23.6807L7.81914 14.9307C7.69678 14.8088 7.59969 14.6639 7.53345 14.5044C7.46721 14.3448 7.43311 14.1738 7.43311 14.0011C7.43311 13.8283 7.46721 13.6573 7.53345 13.4977C7.59969 13.3382 7.69678 13.1933 7.81914 13.0714L16.5691 4.32137C16.8157 4.0748 17.1501 3.93628 17.4988 3.93628C17.8475 3.93628 18.1819 4.0748 18.4285 4.32137C18.6751 4.56794 18.8136 4.90236 18.8136 5.25106C18.8136 5.59976 18.6751 5.93418 18.4285 6.18074L10.6093 14L18.4285 21.8214Z" fill="white"/>
</svg>
