<svg width="17" height="22" viewBox="0 0 17 22" fill="none" xmlns="http://www.w3.org/2000/svg">
<path d="M3.74118 13.3422C5.12588 14.7149 6.52935 15.592 6.55211 15.5639C6.56282 15.5492 6.22803 15.3389 5.99234 14.905C5.79816 14.5488 5.7486 14.1832 5.7486 13.8846V4.99246C5.7486 4.20101 5.42854 3.48321 4.90894 2.96227C4.26613 2.31679 3.45459 2.11859 2.88143 2.11725C2.87741 2.11725 2.87339 2.11725 2.87339 2.11725C2.70332 2.11725 2.2654 2.13332 1.79 2.32482C1.16862 2.57391 0.786953 3.0011 0.639643 3.18591C0.552597 3.29438 0.243247 3.6948 0.0825453 4.30546C-0.00985788 4.65767 -0.00450142 4.97907 0.00487282 5.62187C0.0115687 6.06514 0.0169255 6.4294 0.0865627 6.92489C0.129416 7.22353 0.232534 7.83286 0.497691 8.57208C0.698568 9.13052 0.926227 9.5845 1.11907 9.92063C2.00426 11.4634 2.96713 12.5762 3.7385 13.3409L3.74118 13.3422Z" fill="white"/>
<mask id="mask0_3_104" style="mask-type:luminance" maskUnits="userSpaceOnUse" x="0" y="2" width="7" height="14">
<path d="M3.74118 13.3422C5.12588 14.7149 6.52935 15.592 6.55211 15.5639C6.56282 15.5492 6.22803 15.3389 5.99234 14.905C5.79816 14.5488 5.7486 14.1832 5.7486 13.8846V4.99246C5.7486 4.20101 5.42854 3.48321 4.90894 2.96227C4.26613 2.31679 3.45459 2.11859 2.88143 2.11725C2.87741 2.11725 2.87339 2.11725 2.87339 2.11725C2.70332 2.11725 2.2654 2.13332 1.79 2.32482C1.16862 2.57391 0.786953 3.0011 0.639643 3.18591C0.552597 3.29438 0.243247 3.6948 0.0825453 4.30546C-0.00985788 4.65767 -0.00450142 4.97907 0.00487282 5.62187C0.0115687 6.06514 0.0169255 6.4294 0.0865627 6.92489C0.129416 7.22353 0.232534 7.83286 0.497691 8.57208C0.698568 9.13052 0.926227 9.5845 1.11907 9.92063C2.00426 11.4634 2.96713 12.5762 3.7385 13.3409L3.74118 13.3422Z" fill="white"/>
</mask>
<g mask="url(#mask0_3_104)">
<path d="M6.8107 1.3201L-1.66744 2.31155L0.0891425 17.3325L8.56728 16.3411L6.8107 1.3201Z" fill="white"/>
</g>
<path d="M0.217808 13.1654C0.185668 13.9716 0.236556 15.4434 0.967746 17.0691C1.49003 18.2302 2.17033 19.0498 2.66984 19.56C3.22828 19.5908 3.97688 19.5895 4.84734 19.4663C5.21562 19.414 5.90395 19.3136 6.69809 19.0418C7.39312 18.8034 8.62784 18.3856 9.70186 17.258C10.8161 16.0875 11.191 14.7792 11.329 14.1377C9.98576 15.9255 8.75238 16.2924 8.19662 16.2924C6.1584 16.2924 0.298158 11.2718 0.0102354 6.71597L0.216468 13.1641L0.217808 13.1654ZM0.0115739 6.71731L0.000860214 6.37314C0.000860214 6.48831 0.00487799 6.60214 0.0115739 6.71731Z" fill="white"/>
<mask id="mask1_3_104" style="mask-type:luminance" maskUnits="userSpaceOnUse" x="0" y="6" width="12" height="14">
<path d="M0.217808 13.1654C0.185668 13.9716 0.236556 15.4434 0.967746 17.0691C1.49003 18.2302 2.17033 19.0498 2.66984 19.56C3.22828 19.5908 3.97688 19.5895 4.84734 19.4663C5.21562 19.414 5.90395 19.3136 6.69809 19.0418C7.39312 18.8034 8.62784 18.3856 9.70186 17.258C10.8161 16.0875 11.191 14.7792 11.329 14.1377C9.98576 15.9255 8.75238 16.2924 8.19662 16.2924C6.1584 16.2924 0.298158 11.2718 0.0102354 6.71597L0.216468 13.1641L0.217808 13.1654ZM0.0115739 6.71731L0.000860214 6.37314C0.000860214 6.48831 0.00487799 6.60214 0.0115739 6.71731Z" fill="white"/>
</mask>
<g mask="url(#mask1_3_104)">
<path d="M5.38759 0.711352L-7.4032 14.143L5.94117 26.8507L18.732 13.419L5.38759 0.711352Z" fill="white"/>
</g>
<path d="M13.8881 0.147308L11.578 3.60373C11.416 3.80996 11.3276 4.0644 11.3276 4.32554V14.2609C11.3276 14.2609 10.9861 19.6698 2.79706 19.6698C2.79706 19.6698 4.98661 22 8.46713 22C11.9477 22 16.8999 18.9601 16.8999 14.3734V4.32822C16.8999 4.07511 16.8182 3.82871 16.6656 3.62515L14.4439 0.152666C14.3783 0.0508886 14.2711 0 14.164 0C14.0569 0 13.9537 0.0495483 13.8881 0.147308Z" fill="white"/>
<mask id="mask2_3_104" style="mask-type:luminance" maskUnits="userSpaceOnUse" x="2" y="0" width="15" height="22">
<path d="M13.8881 0.147308L11.578 3.60373C11.416 3.80996 11.3276 4.0644 11.3276 4.32554V14.2609C11.3276 14.2609 10.9861 19.6698 2.79706 19.6698C2.79706 19.6698 4.98661 22 8.46713 22C11.9477 22 16.8999 18.9601 16.8999 14.3734V4.32822C16.8999 4.07511 16.8182 3.82871 16.6656 3.62515L14.4439 0.152666C14.3783 0.0508886 14.2711 0 14.164 0C14.0569 0 13.9537 0.0495483 13.8881 0.147308Z" fill="white"/>
</mask>
<g mask="url(#mask2_3_104)">
<path d="M4.03388 -3.99127L-3.42758 20.0682L15.6627 25.9886L23.1241 1.9291L4.03388 -3.99127Z" fill="white"/>
</g>
</svg>
