<svg width="25" height="25" viewBox="0 0 25 25" fill="none" xmlns="http://www.w3.org/2000/svg">
<path d="M14.5833 19.7917H19.7917V5.20833H5.20833V19.7917H12.5V14.5833H10.4167V12.5H12.5V10.7769C12.5 9.38391 12.645 8.87877 12.9174 8.36951C13.1898 7.86025 13.5894 7.46058 14.0986 7.18823C14.4973 6.97504 14.9919 6.84637 15.8559 6.79119C16.199 6.76928 16.6428 6.79722 17.1875 6.875V8.85417H16.6667C15.7111 8.85417 15.3169 8.89929 15.0811 9.02534C14.935 9.10353 14.8327 9.20581 14.7545 9.35201C14.6284 9.58769 14.5833 9.82139 14.5833 10.7769V12.5H17.1875L16.6667 14.5833H14.5833V19.7917ZM4.16667 3.125H20.8333C21.4086 3.125 21.875 3.59137 21.875 4.16667V20.8333C21.875 21.4086 21.4086 21.875 20.8333 21.875H4.16667C3.59137 21.875 3.125 21.4086 3.125 20.8333V4.16667C3.125 3.59137 3.59137 3.125 4.16667 3.125Z" fill="white"/>
</svg>
