<svg width="24" height="24" viewBox="0 0 24 24" fill="none" xmlns="http://www.w3.org/2000/svg">
<path d="M19.6059 6.99482C19.5297 6.69695 19.3142 6.47221 19.0674 6.40288C18.6289 6.28062 16.5 6 12 6C7.5 6 5.37154 6.28073 4.93127 6.40323C4.68678 6.47123 4.47132 6.69593 4.39412 6.99482C4.28532 7.41923 4 9.19595 4 12C4 14.804 4.28532 16.5808 4.39442 17.0064C4.47028 17.3031 4.68578 17.5278 4.93153 17.5968C5.37154 17.7193 7.5 18 12 18C16.5 18 18.6289 17.7194 19.0687 17.5968C19.3132 17.5288 19.5287 17.3041 19.6059 17.0052C19.7147 16.5808 20 14.8 20 12C20 9.2 19.7147 7.41923 19.6059 6.99482ZM21.5432 6.49818C22 8.28 22 12 22 12C22 12 22 15.72 21.5432 17.5018C21.2887 18.4873 20.546 19.2618 19.6046 19.5236C17.8961 20 12 20 12 20C12 20 6.10739 20 4.39539 19.5236C3.45048 19.2582 2.70781 18.4836 2.45676 17.5018C2 15.72 2 12 2 12C2 12 2 8.28 2.45676 6.49818C2.71129 5.51273 3.45397 4.73818 4.39539 4.47636C6.10739 4 12 4 12 4C12 4 17.8961 4 19.6046 4.47636C20.5495 4.74182 21.2922 5.51636 21.5432 6.49818ZM10 15.5V8.5L16 12L10 15.5Z" fill="white"/>
</svg>
