<svg width="25" height="24" viewBox="0 0 25 24" fill="none" xmlns="http://www.w3.org/2000/svg">
<path d="M11.1 2V8.41396C10.6943 8.33909 10.2764 8.3 9.85 8.3C6.06685 8.3 3 11.3668 3 15.15C3 18.9332 6.06685 22 9.85 22C13.6331 22 16.7 18.9332 16.7 15.15V11.4136C17.7362 11.8539 18.8658 12.1 20.1001 12.1H21.1001V6.5H20.1001C18.1962 6.5 16.7 4.96259 16.7 3V2H11.1ZM13.1 4H14.7876C15.1814 6.22009 16.8669 7.99607 19.1001 8.4091V10.0282C18.062 9.87602 17.1249 9.48645 16.2563 8.905L14.7 7.86327V15.15C14.7 17.8286 12.5286 20 9.85 20C7.17142 20 5 17.8286 5 15.15C5 12.4714 7.17142 10.3 9.85 10.3C9.93392 10.3 10.0173 10.3021 10.1001 10.3063V11.9095C10.0176 11.9032 9.93415 11.9 9.85 11.9C8.05508 11.9 6.6 13.3551 6.6 15.15C6.6 16.9449 8.05508 18.4 9.85 18.4C11.6449 18.4 13.1 16.9449 13.1 15.15C13.1 11.4334 13.0988 7.71665 13.1 4ZM8.6 15.15C8.6 14.4596 9.15964 13.9 9.85 13.9C10.5403 13.9 11.1 14.4596 11.1 15.15C11.1 15.8404 10.5403 16.4 9.85 16.4C9.15964 16.4 8.6 15.8404 8.6 15.15Z" fill="white"/>
</svg>
