<svg width="249" height="157" viewBox="0 0 249 157" fill="none" xmlns="http://www.w3.org/2000/svg">
<path d="M24.7168 129.906C21.6173 129.906 18.8607 129.272 16.4555 128.005C14.0504 126.738 12.1681 124.926 10.8128 122.571C9.45755 120.215 8.77991 117.408 8.77991 114.147V93.9524C8.77991 91.4605 10.7668 89.4406 13.218 89.4406C15.6692 89.4406 17.656 91.4605 17.656 93.9524V114.636C17.656 116.048 17.9405 117.327 18.5094 118.467C19.0782 119.607 19.8981 120.517 20.9689 121.184C22.0397 121.856 23.2862 122.192 24.7126 122.192C26.139 122.192 27.4189 121.856 28.4563 121.184C29.4895 120.512 30.301 119.607 30.8908 118.467C31.4805 117.327 31.7733 116.048 31.7733 114.636V93.9524C31.7733 91.4605 33.7602 89.4406 36.2114 89.4406C38.6626 89.4406 40.6495 91.4605 40.6495 93.9524V114.147C40.6495 117.408 39.9635 120.215 38.5915 122.571C37.2195 124.926 35.3372 126.738 32.9487 128.005C30.5603 129.272 27.8163 129.906 24.7168 129.906Z" fill="white"/>
<path d="M46.7983 129.251V113.215C46.7983 110.898 47.3505 108.793 48.4548 106.909C49.5591 105.025 51.136 103.52 53.1856 102.397C55.2353 101.275 57.6697 100.714 60.4848 100.714C63.2999 100.714 65.7678 101.275 67.784 102.397C69.796 103.52 71.3395 105.025 72.4103 106.909C73.4811 108.793 74.0123 110.894 74.0123 113.215V129.251H65.726V113.432C65.726 112.454 65.4918 111.557 65.0316 110.741C64.5673 109.924 63.9357 109.274 63.1326 108.785C62.3295 108.295 61.4301 108.049 60.4346 108.049C59.4391 108.049 58.4812 108.291 57.6823 108.785C56.8791 109.274 56.2475 109.924 55.7832 110.741C55.3189 111.557 55.0889 112.454 55.0889 113.432V129.251H46.8025H46.7983Z" fill="white"/>
<path d="M84.3859 98.2174C83.0683 98.2174 81.9264 97.7284 80.9643 96.7504C80.0022 95.7723 79.5212 94.6115 79.5212 93.272C79.5212 91.9325 80.0022 90.7631 80.9643 89.768C81.9264 88.773 83.0683 88.2755 84.3859 88.2755C85.7035 88.2755 86.8455 88.773 87.8075 89.768C88.7696 90.7631 89.2506 91.9325 89.2506 93.272C89.2506 94.6115 88.7696 95.7723 87.8075 96.7504C86.8455 97.7284 85.7035 98.2174 84.3859 98.2174ZM80.2156 129.251V105.608C80.2156 103.265 82.0811 101.368 84.3859 101.368C86.6907 101.368 88.5563 103.265 88.5563 105.608V129.251H80.2156Z" fill="white"/>
<path d="M115.314 101.802C117.113 102.529 118.648 103.567 119.911 104.928C121.175 106.288 122.149 107.892 122.827 109.737C123.504 111.587 123.843 113.598 123.843 115.771C123.843 118.599 123.283 121.061 122.158 123.162C121.037 125.262 119.493 126.912 117.531 128.107C115.569 129.302 113.29 129.902 110.688 129.902C109.584 129.902 108.542 129.757 107.559 129.468C106.58 129.179 105.689 128.753 104.886 128.192C104.083 127.631 103.414 126.967 102.883 126.206H102.724V141.043H94.4375V115.822C94.4375 112.777 95.044 110.115 96.257 107.832C97.4701 105.548 99.1809 103.792 101.389 102.559C103.598 101.326 106.183 100.709 109.14 100.709C111.458 100.709 113.516 101.071 115.314 101.798V101.802ZM105.798 108.95C104.853 109.584 104.133 110.456 103.631 111.561C103.134 112.667 102.883 113.909 102.883 115.286C102.883 116.664 103.134 117.897 103.631 118.982C104.129 120.07 104.853 120.929 105.798 121.563C106.744 122.196 107.856 122.515 109.14 122.515C110.425 122.515 111.529 122.201 112.453 121.563C113.378 120.929 114.101 120.066 114.62 118.982C115.134 117.893 115.394 116.664 115.394 115.286C115.394 113.909 115.134 112.667 114.62 111.561C114.101 110.456 113.382 109.588 112.453 108.95C111.525 108.317 110.42 107.998 109.14 107.998C107.86 107.998 106.744 108.317 105.798 108.95Z" fill="white"/>
<path d="M139.776 129.906C137.35 129.906 135.212 129.272 133.359 128.005C131.506 126.738 130.063 125.024 129.03 122.868C127.997 120.712 127.478 118.276 127.478 115.558C127.478 112.841 128.085 110.205 129.298 107.977C130.511 105.748 132.23 103.984 134.455 102.678C136.681 101.373 139.312 100.722 142.34 100.722C145.369 100.722 148.016 101.364 150.175 102.653C152.329 103.941 153.989 105.697 155.148 107.926C156.307 110.154 156.884 112.646 156.884 115.401V129.26H148.757V124.803H148.543C148.046 125.781 147.401 126.661 146.619 127.44C145.833 128.218 144.883 128.826 143.758 129.26C142.637 129.693 141.307 129.91 139.776 129.91V129.906ZM142.236 122.622C143.482 122.622 144.578 122.307 145.523 121.669C146.469 121.035 147.188 120.155 147.69 119.033C148.188 117.91 148.439 116.66 148.439 115.282C148.439 113.904 148.188 112.726 147.69 111.642C147.192 110.553 146.469 109.695 145.523 109.061C144.578 108.427 143.482 108.108 142.236 108.108C140.989 108.108 139.83 108.427 138.868 109.061C137.906 109.695 137.174 110.553 136.676 111.642C136.179 112.731 135.928 113.943 135.928 115.282C135.928 116.622 136.179 117.91 136.676 119.033C137.174 120.155 137.906 121.035 138.868 121.669C139.83 122.303 140.951 122.622 142.236 122.622Z" fill="white"/>
<path d="M183.696 101.802C185.495 102.529 187.03 103.567 188.293 104.928C189.557 106.288 190.531 107.892 191.209 109.737C191.887 111.587 192.225 113.598 192.225 115.771C192.225 118.599 191.665 121.061 190.54 123.162C189.419 125.262 187.875 126.912 185.913 128.107C183.952 129.302 181.672 129.902 179.07 129.902C177.966 129.902 176.924 129.757 175.941 129.468C174.963 129.179 174.072 128.753 173.268 128.192C172.465 127.631 171.796 126.967 171.265 126.206H171.106V141.043H162.82V115.822C162.82 112.777 163.426 110.115 164.639 107.832C165.852 105.548 167.563 103.792 169.772 102.559C171.98 101.326 174.565 100.709 177.522 100.709C179.84 100.709 181.898 101.071 183.696 101.798V101.802ZM174.18 108.95C173.235 109.584 172.516 110.456 172.014 111.561C171.516 112.667 171.265 113.909 171.265 115.286C171.265 116.664 171.516 117.897 172.014 118.982C172.511 120.07 173.235 120.929 174.18 121.563C175.126 122.196 176.238 122.515 177.522 122.515C178.807 122.515 179.911 122.201 180.835 121.563C181.76 120.929 182.483 120.066 183.002 118.982C183.517 117.893 183.776 116.664 183.776 115.286C183.776 113.909 183.517 112.667 183.002 111.561C182.483 110.456 181.764 109.588 180.835 108.95C179.907 108.317 178.802 107.998 177.522 107.998C176.243 107.998 175.126 108.317 174.18 108.95Z" fill="white"/>
<path d="M211.471 129.251C208.371 129.251 205.644 128.664 203.289 127.486C200.938 126.308 199.11 124.68 197.81 122.596C196.509 120.512 195.856 118.093 195.856 115.342C195.856 112.297 196.479 109.69 197.726 107.513C198.972 105.34 200.641 103.665 202.724 102.487C204.808 101.309 207.117 100.722 209.647 100.722C212.533 100.722 214.947 101.339 216.892 102.572C218.833 103.805 220.305 105.48 221.305 107.598C222.3 109.716 222.802 112.135 222.802 114.853C222.802 115.325 222.777 115.877 222.723 116.511C222.669 117.145 222.606 117.642 222.535 118.008H204.569C204.782 118.952 205.192 119.747 205.799 120.398C206.405 121.048 207.171 121.529 208.1 121.839C209.024 122.145 210.061 122.303 211.199 122.303H216.173C218.063 122.303 219.594 123.859 219.594 125.781C219.594 127.703 218.063 129.26 216.173 129.26H211.467L211.471 129.251ZM204.36 112.726H214.788C214.717 112.148 214.608 111.587 214.466 111.042C214.324 110.498 214.098 110.018 213.797 109.601C213.495 109.184 213.144 108.823 212.755 108.512C212.362 108.206 211.906 107.96 211.391 107.777C210.873 107.594 210.296 107.505 209.656 107.505C208.836 107.505 208.104 107.649 207.464 107.938C206.824 108.227 206.288 108.619 205.862 109.108C205.435 109.597 205.105 110.158 204.875 110.792C204.64 111.425 204.473 112.067 204.368 112.722L204.36 112.726Z" fill="white"/>
<path d="M227.404 129.251V109.575C227.404 107.041 228.115 105.047 229.541 103.597C230.967 102.147 232.946 101.424 235.477 101.424H243.445V108.274H237.51C237.012 108.274 236.581 108.449 236.225 108.789C235.87 109.133 235.69 109.575 235.69 110.12V129.251H227.404Z" fill="white"/>
<path d="M111.403 54.7331C115.728 59.0917 120.112 61.877 120.183 61.7877C120.217 61.7409 119.171 61.0733 118.435 59.6955C117.828 58.5644 117.673 57.4035 117.673 56.4552V28.2197C117.673 25.7066 116.674 23.4273 115.051 21.7732C113.043 19.7236 110.508 19.0942 108.718 19.09C108.705 19.09 108.693 19.09 108.693 19.09C108.162 19.09 106.794 19.141 105.309 19.7491C103.368 20.54 102.176 21.8965 101.716 22.4833C101.444 22.8278 100.478 24.0992 99.9756 26.0383C99.687 27.1566 99.7037 28.1772 99.733 30.2183C99.7539 31.6259 99.7707 32.7825 99.9882 34.3559C100.122 35.3041 100.444 37.2389 101.272 39.5862C101.9 41.3595 102.611 42.801 103.213 43.8683C105.978 48.767 108.986 52.3007 111.395 54.7288L111.403 54.7331Z" fill="#223360"/>
<mask id="mask0_3_13" style="mask-type:luminance" maskUnits="userSpaceOnUse" x="99" y="19" width="22" height="43">
<path d="M111.403 54.7331C115.728 59.0917 120.112 61.877 120.183 61.7877C120.217 61.7409 119.171 61.0733 118.435 59.6955C117.828 58.5644 117.673 57.4035 117.673 56.4552V28.2197C117.673 25.7066 116.674 23.4273 115.051 21.7732C113.043 19.7236 110.508 19.0942 108.718 19.09C108.705 19.09 108.693 19.09 108.693 19.09C108.162 19.09 106.794 19.141 105.309 19.7491C103.368 20.54 102.176 21.8965 101.716 22.4833C101.444 22.8278 100.478 24.0992 99.9756 26.0383C99.687 27.1566 99.7037 28.1772 99.733 30.2183C99.7539 31.6259 99.7707 32.7825 99.9882 34.3559C100.122 35.3041 100.444 37.2389 101.272 39.5862C101.9 41.3595 102.611 42.801 103.213 43.8683C105.978 48.767 108.986 52.3007 111.395 54.7288L111.403 54.7331Z" fill="white"/>
</mask>
<g mask="url(#mask0_3_13)">
<path d="M120.991 16.5588L94.5096 19.707L99.9962 67.4036L126.478 64.2554L120.991 16.5588Z" fill="#223360"/>
</g>
<path d="M100.398 54.1717C100.298 56.7316 100.457 61.405 102.741 66.5673C104.372 70.2541 106.497 72.8565 108.057 74.4766C109.801 74.5744 112.14 74.5702 114.858 74.179C116.009 74.0131 118.159 73.6942 120.639 72.831C122.81 72.0741 126.667 70.7473 130.021 67.1669C133.502 63.4503 134.673 59.2958 135.104 57.2589C130.908 62.9358 127.056 64.1009 125.32 64.1009C118.953 64.1009 100.649 48.1589 99.7497 33.6925L100.394 54.1675L100.398 54.1717ZM99.7539 33.6967L99.7205 32.6039C99.7205 32.9696 99.733 33.331 99.7539 33.6967Z" fill="#223360"/>
<mask id="mask1_3_13" style="mask-type:luminance" maskUnits="userSpaceOnUse" x="99" y="32" width="37" height="43">
<path d="M100.398 54.1717C100.298 56.7316 100.457 61.405 102.741 66.5673C104.372 70.2541 106.497 72.8565 108.057 74.4766C109.801 74.5744 112.14 74.5702 114.858 74.179C116.009 74.0131 118.159 73.6942 120.639 72.831C122.81 72.0741 126.667 70.7473 130.021 67.1669C133.502 63.4503 134.673 59.2958 135.104 57.2589C130.908 62.9358 127.056 64.1009 125.32 64.1009C118.953 64.1009 100.649 48.1589 99.7497 33.6925L100.394 54.1675L100.398 54.1717ZM99.7539 33.6967L99.7205 32.6039C99.7205 32.9696 99.733 33.331 99.7539 33.6967Z" fill="white"/>
</mask>
<g mask="url(#mask1_3_13)">
<path d="M116.546 14.6259L76.594 57.2759L118.275 97.6271L158.227 54.977L116.546 14.6259Z" fill="#223360"/>
</g>
<path d="M143.097 12.8348L135.882 23.8101C135.376 24.4649 135.099 25.2729 135.099 26.1021V57.6502C135.099 57.6502 134.033 74.8253 108.454 74.8253C108.454 74.8253 115.293 82.2244 126.165 82.2244C137.036 82.2244 152.505 72.5716 152.505 58.0073V26.1106C152.505 25.3069 152.249 24.5244 151.773 23.8781L144.833 12.8518C144.628 12.5286 144.294 12.367 143.959 12.367C143.624 12.367 143.302 12.5244 143.097 12.8348Z" fill="#FDC905"/>
<mask id="mask2_3_13" style="mask-type:luminance" maskUnits="userSpaceOnUse" x="108" y="12" width="45" height="71">
<path d="M143.097 12.8348L135.882 23.8101C135.376 24.4649 135.099 25.2729 135.099 26.1021V57.6502C135.099 57.6502 134.033 74.8253 108.454 74.8253C108.454 74.8253 115.293 82.2244 126.165 82.2244C137.036 82.2244 152.505 72.5716 152.505 58.0073V26.1106C152.505 25.3069 152.249 24.5244 151.773 23.8781L144.833 12.8518C144.628 12.5286 144.294 12.367 143.959 12.367C143.624 12.367 143.302 12.5244 143.097 12.8348Z" fill="white"/>
</mask>
<g mask="url(#mask2_3_13)">
<path d="M112.318 -0.306604L89.0118 76.0903L148.64 94.8895L171.946 18.4926L112.318 -0.306604Z" fill="#FDC905"/>
</g>
</svg>
